<?xml version="1.0" encoding="utf-8"?>
<!-- Generator: Adobe Illustrator 16.0.0, SVG Export Plug-In . SVG Version: 6.00 Build 0)  -->
<!DOCTYPE svg PUBLIC "-//W3C//DTD SVG 1.1//EN" "http://www.w3.org/Graphics/SVG/1.1/DTD/svg11.dtd">
<svg version="1.1" id="Layer_1" xmlns="http://www.w3.org/2000/svg" xmlns:xlink="http://www.w3.org/1999/xlink" x="0px" y="0px"
	 width="2038.25px" height="219.9px" viewBox="0 0 2038.25 219.9" enable-background="new 0 0 2038.25 219.9" xml:space="preserve">
<rect y="0.93" fill="#FFFFFF" width="2038.25" height="218.97"/>
<g>
	<line fill="none" stroke="#000000" stroke-width="2" stroke-miterlimit="10" x1="683.63" y1="109.99" x2="850.63" y2="0.93"/>
	<line fill="none" stroke="#000000" stroke-width="2" stroke-miterlimit="10" x1="672.73" y1="93.85" x2="815.19" y2="0.93"/>
	<line fill="none" stroke="#000000" stroke-width="2" stroke-miterlimit="10" x1="661.96" y1="77.3" x2="779.03" y2="0.93"/>
	<line fill="none" stroke="#000000" stroke-width="2" stroke-miterlimit="10" x1="653.04" y1="59.77" x2="743.23" y2="0.93"/>
	<line fill="none" stroke="#000000" stroke-width="2" stroke-miterlimit="10" x1="659.12" y1="32.47" x2="707.38" y2="0.93"/>
	<line fill="none" stroke="#000000" stroke-width="2" stroke-miterlimit="10" x1="1698.87" y1="109.99" x2="1865.87" y2="0.93"/>
	<line fill="none" stroke="#000000" stroke-width="2" stroke-miterlimit="10" x1="1689.85" y1="92.74" x2="1830.44" y2="0.93"/>
	<line fill="none" stroke="#000000" stroke-width="2" stroke-miterlimit="10" x1="1678.99" y1="76.21" x2="1794.27" y2="0.93"/>
	<line fill="none" stroke="#000000" stroke-width="2" stroke-miterlimit="10" x1="1669.52" y1="59.02" x2="1758.47" y2="0.93"/>
	<line fill="none" stroke="#000000" stroke-width="2" stroke-miterlimit="10" x1="1676.53" y1="31.04" x2="1722.63" y2="0.93"/>
	<line fill="none" stroke="#000000" stroke-width="2" stroke-miterlimit="10" x1="849.18" y1="218.95" x2="870.55" y2="200.79"/>
	<line fill="none" stroke="#000000" stroke-width="2" stroke-miterlimit="10" x1="819.26" y1="218.95" x2="866.47" y2="178.84"/>
	<line fill="none" stroke="#000000" stroke-width="2" stroke-miterlimit="10" x1="788.71" y1="218.95" x2="862.07" y2="156.62"/>
	<line fill="none" stroke="#000000" stroke-width="2" stroke-miterlimit="10" x1="758.48" y1="218.95" x2="852.23" y2="139.3"/>
	<line fill="none" stroke="#000000" stroke-width="2" stroke-miterlimit="10" x1="744.78" y1="204.87" x2="835.9" y2="127.46"/>
	<line fill="none" stroke="#000000" stroke-width="2" stroke-miterlimit="10" x1="1866.54" y1="218.95" x2="1887.91" y2="200.79"/>
	<line fill="none" stroke="#000000" stroke-width="2" stroke-miterlimit="10" x1="1836.62" y1="218.95" x2="1883.83" y2="178.84"/>
	<line fill="none" stroke="#000000" stroke-width="2" stroke-miterlimit="10" x1="1806.08" y1="218.95" x2="1879.44" y2="156.62"/>
	<line fill="none" stroke="#000000" stroke-width="2" stroke-miterlimit="10" x1="1775.84" y1="218.95" x2="1869.59" y2="139.3"/>
	<line fill="none" stroke="#000000" stroke-width="2" stroke-miterlimit="10" x1="1762.14" y1="204.87" x2="1853.26" y2="127.46"/>
	<line fill="none" stroke="#000000" stroke-width="2" stroke-miterlimit="10" x1="0.63" y1="78.1" x2="86.57" y2="9.33"/>
	<line fill="none" stroke="#000000" stroke-width="2" stroke-miterlimit="10" x1="0.63" y1="53.29" x2="66.05" y2="0.93"/>
	<line fill="none" stroke="#000000" stroke-width="2" stroke-miterlimit="10" x1="0.63" y1="27.96" x2="34.4" y2="0.93"/>
	<line fill="none" stroke="#000000" stroke-width="2" stroke-miterlimit="10" x1="0.63" y1="95.24" x2="146.46" y2="95.24"/>
	<line fill="none" stroke="#000000" stroke-width="2" stroke-miterlimit="10" x1="3.26" y1="75.99" x2="146.46" y2="75.99"/>
	<line fill="none" stroke="#000000" stroke-width="2" stroke-miterlimit="10" x1="27.97" y1="56.22" x2="134.96" y2="56.09"/>
	<line fill="none" stroke="#000000" stroke-width="2" stroke-miterlimit="10" x1="52.43" y1="36.65" x2="115.29" y2="36.52"/>
	<line fill="none" stroke="#000000" stroke-width="2" stroke-miterlimit="10" x1="77.1" y1="16.91" x2="94.63" y2="16.91"/>
	<line fill="none" stroke="#000000" stroke-width="2" stroke-miterlimit="10" x1="0.63" y1="173.58" x2="43.29" y2="173.58"/>
	<line fill="none" stroke="#000000" stroke-width="2" stroke-miterlimit="10" x1="0.63" y1="154.33" x2="62.37" y2="154.33"/>
	<line fill="none" stroke="#000000" stroke-width="2" stroke-miterlimit="10" x1="0.63" y1="134.56" x2="57.56" y2="134.56"/>
	<line fill="none" stroke="#000000" stroke-width="2" stroke-miterlimit="10" x1="0.63" y1="114.92" x2="38.11" y2="114.86"/>
	<line fill="none" stroke="#000000" stroke-width="2" stroke-miterlimit="10" x1="0.63" y1="200.3" x2="39.38" y2="218.95"/>
	<line fill="none" stroke="#000000" stroke-width="2" stroke-miterlimit="10" x1="0.63" y1="178.81" x2="83" y2="218.95"/>
	<line fill="none" stroke="#000000" stroke-width="2" stroke-miterlimit="10" x1="62.91" y1="209.16" x2="96.78" y2="174.58"/>
	<line fill="none" stroke="#000000" stroke-width="2" stroke-miterlimit="10" x1="44.55" y1="200.21" x2="83.32" y2="160.63"/>
	<line fill="none" stroke="#000000" stroke-width="2" stroke-miterlimit="10" x1="26.36" y1="190.8" x2="69.54" y2="146.72"/>
	<line fill="none" stroke="#000000" stroke-width="2" stroke-miterlimit="10" x1="108.23" y1="218.95" x2="124.2" y2="202.64"/>
	<line fill="none" stroke="#000000" stroke-width="2" stroke-miterlimit="10" x1="81.37" y1="218.16" x2="110.37" y2="188.56"/>
	<line fill="none" stroke="#000000" stroke-width="2" stroke-miterlimit="10" x1="18.75" y1="95.24" x2="140.88" y2="218.95"/>
	<line fill="none" stroke="#000000" stroke-width="2" stroke-miterlimit="10" x1="46.15" y1="95.24" x2="168.27" y2="218.95"/>
	<line fill="none" stroke="#000000" stroke-width="2" stroke-miterlimit="10" x1="73.9" y1="95.24" x2="196.02" y2="218.95"/>
	<line fill="none" stroke="#000000" stroke-width="2" stroke-miterlimit="10" x1="101.24" y1="95.24" x2="143.75" y2="138.31"/>
	<line fill="none" stroke="#000000" stroke-width="2" stroke-miterlimit="10" x1="128.41" y1="95.24" x2="144.88" y2="111.93"/>
	<line fill="none" stroke="#000000" stroke-width="2" stroke-miterlimit="10" x1="79.84" y1="0.93" x2="147.88" y2="67.43"/>
	<line fill="none" stroke="#000000" stroke-width="2" stroke-miterlimit="10" x1="107.56" y1="0.93" x2="148.46" y2="40.92"/>
	<line fill="none" stroke="#000000" stroke-width="2" stroke-miterlimit="10" x1="134.47" y1="0.93" x2="221.83" y2="85.93"/>
	<line fill="none" stroke="#000000" stroke-width="2" stroke-miterlimit="10" x1="162.41" y1="0.93" x2="235.45" y2="72.32"/>
	<line fill="none" stroke="#000000" stroke-width="2" stroke-miterlimit="10" x1="190.72" y1="0.93" x2="249.44" y2="58.33"/>
	<line fill="none" stroke="#000000" stroke-width="2" stroke-miterlimit="10" x1="218.52" y1="0.93" x2="264.14" y2="45.53"/>
	<line fill="none" stroke="#000000" stroke-width="2" stroke-miterlimit="10" x1="246.67" y1="0.93" x2="278.58" y2="32.12"/>
	<line fill="none" stroke="#000000" stroke-width="2" stroke-miterlimit="10" x1="273.8" y1="0.93" x2="292.17" y2="18.89"/>
	<line fill="none" stroke="#000000" stroke-width="2" stroke-miterlimit="10" x1="149.75" y1="16.91" x2="143.17" y2="165.41"/>
	<line fill="none" stroke="#000000" stroke-width="2" stroke-miterlimit="10" x1="168.19" y1="33.74" x2="161.6" y2="184.09"/>
	<line fill="none" stroke="#000000" stroke-width="2" stroke-miterlimit="10" x1="187.16" y1="52.2" x2="180.58" y2="203.91"/>
	<line fill="none" stroke="#000000" stroke-width="2" stroke-miterlimit="10" x1="183.71" y1="131.77" x2="292.96" y2="218.95"/>
	<line fill="none" stroke="#000000" stroke-width="2" stroke-miterlimit="10" x1="184.73" y1="108.11" x2="324.79" y2="218.95"/>
	<line fill="none" stroke="#000000" stroke-width="2" stroke-miterlimit="10" x1="185.78" y1="83.94" x2="357.29" y2="218.95"/>
	<line fill="none" stroke="#000000" stroke-width="2" stroke-miterlimit="10" x1="181.9" y1="173.42" x2="216.03" y2="157.56"/>
	<line fill="none" stroke="#000000" stroke-width="2" stroke-miterlimit="10" x1="182.85" y1="151.44" x2="198.93" y2="143.86"/>
	<line fill="none" stroke="#000000" stroke-width="2" stroke-miterlimit="10" x1="180.95" y1="195.25" x2="232.83" y2="170.97"/>
	<line fill="none" stroke="#000000" stroke-width="2" stroke-miterlimit="10" x1="250.1" y1="184.75" x2="189.94" y2="212.79"/>
	<line fill="none" stroke="#000000" stroke-width="2" stroke-miterlimit="10" x1="266.99" y1="198.23" x2="223.63" y2="218.95"/>
	<line fill="none" stroke="#000000" stroke-width="2" stroke-miterlimit="10" x1="270.79" y1="218.95" x2="284.3" y2="212.04"/>
	<line fill="none" stroke="#000000" stroke-width="2" stroke-miterlimit="10" x1="205.83" y1="70.36" x2="205.04" y2="99.1"/>
	
		<line fill="none" stroke="#000000" stroke-width="1.7898" stroke-miterlimit="10" x1="375.13" y1="75.99" x2="375.13" y2="218.95"/>
	
		<line fill="none" stroke="#000000" stroke-width="1.7898" stroke-miterlimit="10" x1="355.63" y1="95.24" x2="355.63" y2="218.95"/>
	
		<line fill="none" stroke="#000000" stroke-width="1.7898" stroke-miterlimit="10" x1="336.13" y1="111.93" x2="336.13" y2="202.29"/>
	
		<line fill="none" stroke="#000000" stroke-width="1.7898" stroke-miterlimit="10" x1="316.63" y1="130.43" x2="316.63" y2="186.94"/>
	
		<line fill="none" stroke="#000000" stroke-width="1.7898" stroke-miterlimit="10" x1="297.13" y1="148.68" x2="297.13" y2="171.59"/>
	<line fill="none" stroke="#000000" stroke-width="2.116" stroke-miterlimit="10" x1="455.47" y1="0.93" x2="283.3" y2="160.7"/>
	<line fill="none" stroke="#000000" stroke-width="2.116" stroke-miterlimit="10" x1="426.81" y1="0.93" x2="267.79" y2="148.49"/>
	<line fill="none" stroke="#000000" stroke-width="2.116" stroke-miterlimit="10" x1="398.14" y1="0.93" x2="252.28" y2="136.28"/>
	<line fill="none" stroke="#000000" stroke-width="2.116" stroke-miterlimit="10" x1="369.36" y1="1.04" x2="236.77" y2="124.07"/>
	<line fill="none" stroke="#000000" stroke-width="2.116" stroke-miterlimit="10" x1="340.69" y1="1.04" x2="221.26" y2="111.86"/>
	<line fill="none" stroke="#000000" stroke-width="2.116" stroke-miterlimit="10" x1="312.02" y1="1.04" x2="205.83" y2="99.72"/>
	<line fill="none" stroke="#000000" stroke-width="2" stroke-miterlimit="10" x1="497.94" y1="203.1" x2="375.13" y2="203.1"/>
	<line fill="none" stroke="#000000" stroke-width="2" stroke-miterlimit="10" x1="480.84" y1="183.6" x2="375.13" y2="183.6"/>
	<line fill="none" stroke="#000000" stroke-width="2" stroke-miterlimit="10" x1="463.75" y1="164.1" x2="375.13" y2="164.1"/>
	<line fill="none" stroke="#000000" stroke-width="2" stroke-miterlimit="10" x1="446.66" y1="144.6" x2="375.13" y2="144.6"/>
	<line fill="none" stroke="#000000" stroke-width="2" stroke-miterlimit="10" x1="429.57" y1="125.1" x2="375.13" y2="125.1"/>
	<line fill="none" stroke="#000000" stroke-width="2" stroke-miterlimit="10" x1="412.47" y1="105.6" x2="375.13" y2="105.6"/>
	<line fill="none" stroke="#000000" stroke-width="2" stroke-miterlimit="10" x1="395.38" y1="86.1" x2="375.13" y2="86.1"/>
	<line fill="none" stroke="#000000" stroke-width="2" stroke-miterlimit="10" x1="410.9" y1="44.64" x2="563.69" y2="218.95"/>
	<line fill="none" stroke="#000000" stroke-width="2" stroke-miterlimit="10" x1="396.24" y1="57.5" x2="537.76" y2="218.95"/>
	<line fill="none" stroke="#000000" stroke-width="2" stroke-miterlimit="10" x1="381.57" y1="70.35" x2="511.83" y2="218.95"/>
	<line fill="none" stroke="#000000" stroke-width="2" stroke-miterlimit="10" x1="527.78" y1="1.04" x2="503.29" y2="149.66"/>
	<line fill="none" stroke="#000000" stroke-width="2" stroke-miterlimit="10" x1="508.03" y1="0.93" x2="486.6" y2="131"/>
	<line fill="none" stroke="#000000" stroke-width="2" stroke-miterlimit="10" x1="488.25" y1="1.04" x2="469.97" y2="112.02"/>
	<line fill="none" stroke="#000000" stroke-width="2" stroke-miterlimit="10" x1="468.51" y1="0.93" x2="453.33" y2="93.05"/>
	<line fill="none" stroke="#000000" stroke-width="2" stroke-miterlimit="10" x1="447.53" y1="8.3" x2="436.93" y2="73.71"/>
	<line fill="none" stroke="#000000" stroke-width="2" stroke-miterlimit="10" x1="424.2" y1="29.95" x2="420.06" y2="55.09"/>
	<line fill="none" stroke="#000000" stroke-width="2" stroke-miterlimit="10" x1="710.4" y1="0.93" x2="515.78" y2="76.21"/>
	<line fill="none" stroke="#000000" stroke-width="2" stroke-miterlimit="10" x1="656.08" y1="1.04" x2="519.04" y2="54.04"/>
	<line fill="none" stroke="#000000" stroke-width="2" stroke-miterlimit="10" x1="602.03" y1="1.04" x2="522.72" y2="31.71"/>
	<line fill="none" stroke="#000000" stroke-width="2" stroke-miterlimit="10" x1="547.98" y1="1.04" x2="526.4" y2="9.38"/>
	<line fill="none" stroke="#000000" stroke-width="2" stroke-miterlimit="10" x1="504.78" y1="151.44" x2="645.68" y2="196.4"/>
	<line fill="none" stroke="#000000" stroke-width="2" stroke-miterlimit="10" x1="529.33" y1="179.75" x2="652.19" y2="218.95"/>
	<line fill="none" stroke="#000000" stroke-width="2" stroke-miterlimit="10" x1="554.24" y1="208.16" x2="588.04" y2="218.95"/>
	<line fill="none" stroke="#000000" stroke-width="2" stroke-miterlimit="10" x1="558.13" y1="59.77" x2="661.28" y2="219.03"/>
	<line fill="none" stroke="#000000" stroke-width="2" stroke-miterlimit="10" x1="539.64" y1="66.98" x2="617.63" y2="187.45"/>
	<line fill="none" stroke="#000000" stroke-width="2" stroke-miterlimit="10" x1="520.88" y1="73.71" x2="588.04" y2="178.01"/>
	<line fill="none" stroke="#000000" stroke-width="2" stroke-miterlimit="10" x1="512.08" y1="96.3" x2="559.01" y2="168.75"/>
	<line fill="none" stroke="#000000" stroke-width="2" stroke-miterlimit="10" x1="507.37" y1="124.89" x2="529.73" y2="159.4"/>
	<line fill="none" stroke="#000000" stroke-width="2" stroke-miterlimit="10" x1="661.96" y1="19.68" x2="628.79" y2="168.87"/>
	<line fill="none" stroke="#000000" stroke-width="2" stroke-miterlimit="10" x1="640.11" y1="28.12" x2="613.92" y2="145.91"/>
	<line fill="none" stroke="#000000" stroke-width="2" stroke-miterlimit="10" x1="618.25" y1="36.58" x2="599.05" y2="122.95"/>
	<line fill="none" stroke="#000000" stroke-width="2" stroke-miterlimit="10" x1="596.39" y1="45.03" x2="584.17" y2="99.99"/>
	<line fill="none" stroke="#000000" stroke-width="2" stroke-miterlimit="10" x1="574.54" y1="53.48" x2="569.3" y2="77.03"/>
	<line fill="none" stroke="#000000" stroke-width="2" stroke-miterlimit="10" x1="652.42" y1="62.65" x2="754.14" y2="218.95"/>
	<line fill="none" stroke="#000000" stroke-width="2" stroke-miterlimit="10" x1="646.49" y1="89.27" x2="730.88" y2="218.95"/>
	<line fill="none" stroke="#000000" stroke-width="2" stroke-miterlimit="10" x1="640.56" y1="115.92" x2="707.61" y2="218.95"/>
	<line fill="none" stroke="#000000" stroke-width="2" stroke-miterlimit="10" x1="634.64" y1="142.56" x2="684.35" y2="218.95"/>
	<line fill="none" stroke="#000000" stroke-width="2" stroke-miterlimit="10" x1="818.73" y1="116.6" x2="818.3" y2="142.41"/>
	<line fill="none" stroke="#000000" stroke-width="2" stroke-miterlimit="10" x1="799.46" y1="102.27" x2="798.52" y2="159.21"/>
	<line fill="none" stroke="#000000" stroke-width="2" stroke-miterlimit="10" x1="780.19" y1="88.1" x2="778.85" y2="175.92"/>
	<line fill="none" stroke="#000000" stroke-width="2" stroke-miterlimit="10" x1="760.93" y1="73.71" x2="758.96" y2="192.83"/>
	<line fill="none" stroke="#000000" stroke-width="2" stroke-miterlimit="10" x1="741.45" y1="72.23" x2="739.4" y2="196.29"/>
	<line fill="none" stroke="#000000" stroke-width="2" stroke-miterlimit="10" x1="721.74" y1="85.1" x2="720.38" y2="167.07"/>
	<line fill="none" stroke="#000000" stroke-width="2" stroke-miterlimit="10" x1="702.02" y1="97.98" x2="701.36" y2="137.84"/>
	<line fill="none" stroke="#000000" stroke-width="2" stroke-miterlimit="10" x1="820.58" y1="20.55" x2="837.75" y2="33.09"/>
	<line fill="none" stroke="#000000" stroke-width="2" stroke-miterlimit="10" x1="803.12" y1="31.95" x2="842.86" y2="60.96"/>
	<line fill="none" stroke="#000000" stroke-width="2" stroke-miterlimit="10" x1="785.66" y1="43.35" x2="848.58" y2="89.27"/>
	<line fill="none" stroke="#000000" stroke-width="2" stroke-miterlimit="10" x1="768.21" y1="54.75" x2="854.11" y2="117.45"/>
	<line fill="none" stroke="#000000" stroke-width="2" stroke-miterlimit="10" x1="750.69" y1="66.11" x2="858.84" y2="145.04"/>
	<line fill="none" stroke="#000000" stroke-width="2" stroke-miterlimit="10" x1="833.5" y1="12.12" x2="873.73" y2="219.03"/>
	<line fill="none" stroke="#000000" stroke-width="2" stroke-miterlimit="10" x1="850.63" y1="0.93" x2="894.9" y2="218.95"/>
	<line fill="none" stroke="#000000" stroke-width="2" stroke-miterlimit="10" x1="963.31" y1="0.93" x2="887.51" y2="182.8"/>
	<line fill="none" stroke="#000000" stroke-width="2" stroke-miterlimit="10" x1="942.18" y1="0.93" x2="880.62" y2="148.64"/>
	<line fill="none" stroke="#000000" stroke-width="2" stroke-miterlimit="10" x1="921.05" y1="0.93" x2="873.73" y2="114.47"/>
	<line fill="none" stroke="#000000" stroke-width="2" stroke-miterlimit="10" x1="899.93" y1="0.93" x2="866.78" y2="80.47"/>
	<line fill="none" stroke="#000000" stroke-width="2" stroke-miterlimit="10" x1="878.8" y1="0.93" x2="860.14" y2="45.7"/>
	<line fill="none" stroke="#000000" stroke-width="2" stroke-miterlimit="10" x1="857.68" y1="0.93" x2="852.9" y2="12.12"/>
	<line fill="none" stroke="#000000" stroke-width="2" stroke-miterlimit="10" x1="910.63" y1="127.81" x2="1099.86" y2="218.95"/>
	<line fill="none" stroke="#000000" stroke-width="2" stroke-miterlimit="10" x1="902.95" y1="145.75" x2="1054.92" y2="218.95"/>
	<line fill="none" stroke="#000000" stroke-width="2" stroke-miterlimit="10" x1="895.43" y1="163.78" x2="1009.98" y2="218.95"/>
	<line fill="none" stroke="#000000" stroke-width="2" stroke-miterlimit="10" x1="887.92" y1="181.8" x2="965.05" y2="218.95"/>
	<line fill="none" stroke="#000000" stroke-width="2" stroke-miterlimit="10" x1="892.16" y1="205.49" x2="920.11" y2="218.95"/>
	<line fill="none" stroke="#000000" stroke-width="2" stroke-miterlimit="10" x1="961.73" y1="0.93" x2="999.29" y2="170.93"/>
	<line fill="none" stroke="#000000" stroke-width="2" stroke-miterlimit="10" x1="949.44" y1="34.2" x2="976.84" y2="159.7"/>
	<line fill="none" stroke="#000000" stroke-width="2" stroke-miterlimit="10" x1="936.19" y1="66.11" x2="954.49" y2="148.93"/>
	<line fill="none" stroke="#000000" stroke-width="2" stroke-miterlimit="10" x1="923.12" y1="97.34" x2="932.14" y2="138.17"/>
	<line fill="none" stroke="#000000" stroke-width="2" stroke-miterlimit="10" x1="1700.85" y1="109.99" x2="1867.85" y2="0.93"/>
	<line fill="none" stroke="#000000" stroke-width="2" stroke-miterlimit="10" x1="1689.96" y1="93.85" x2="1832.42" y2="0.93"/>
	<line fill="none" stroke="#000000" stroke-width="2" stroke-miterlimit="10" x1="1679.18" y1="77.3" x2="1796.25" y2="0.93"/>
	<line fill="none" stroke="#000000" stroke-width="2" stroke-miterlimit="10" x1="1670.27" y1="59.77" x2="1760.45" y2="0.93"/>
	<line fill="none" stroke="#000000" stroke-width="2" stroke-miterlimit="10" x1="1676.34" y1="32.47" x2="1724.61" y2="0.93"/>
	<line fill="none" stroke="#000000" stroke-width="2" stroke-miterlimit="10" x1="1866.4" y1="218.95" x2="1887.77" y2="200.79"/>
	<line fill="none" stroke="#000000" stroke-width="2" stroke-miterlimit="10" x1="1836.48" y1="218.95" x2="1883.69" y2="178.84"/>
	<line fill="none" stroke="#000000" stroke-width="2" stroke-miterlimit="10" x1="1805.94" y1="218.95" x2="1879.3" y2="156.62"/>
	<line fill="none" stroke="#000000" stroke-width="2" stroke-miterlimit="10" x1="1775.71" y1="218.95" x2="1869.45" y2="139.3"/>
	<line fill="none" stroke="#000000" stroke-width="2" stroke-miterlimit="10" x1="1762.01" y1="204.87" x2="1853.12" y2="127.46"/>
	<line fill="none" stroke="#000000" stroke-width="2" stroke-miterlimit="10" x1="984.6" y1="104.44" x2="1103.8" y2="9.33"/>
	<line fill="none" stroke="#000000" stroke-width="2" stroke-miterlimit="10" x1="979.93" y1="83.3" x2="1083.28" y2="0.93"/>
	<line fill="none" stroke="#000000" stroke-width="2" stroke-miterlimit="10" x1="975.26" y1="62.14" x2="1051.63" y2="0.93"/>
	<line fill="none" stroke="#000000" stroke-width="2" stroke-miterlimit="10" x1="970.49" y1="40.57" x2="1019.95" y2="0.93"/>
	<line fill="none" stroke="#000000" stroke-width="2" stroke-miterlimit="10" x1="965.67" y1="18.75" x2="987.91" y2="0.93"/>
	<line fill="none" stroke="#000000" stroke-width="2" stroke-miterlimit="10" x1="996.13" y1="95.24" x2="1163.68" y2="95.24"/>
	<line fill="none" stroke="#000000" stroke-width="2" stroke-miterlimit="10" x1="1020.48" y1="75.99" x2="1163.68" y2="75.99"/>
	<line fill="none" stroke="#000000" stroke-width="2" stroke-miterlimit="10" x1="1045.19" y1="56.22" x2="1152.18" y2="56.09"/>
	<line fill="none" stroke="#000000" stroke-width="2" stroke-miterlimit="10" x1="1069.66" y1="36.65" x2="1132.52" y2="36.52"/>
	<line fill="none" stroke="#000000" stroke-width="2" stroke-miterlimit="10" x1="1094.33" y1="16.91" x2="1111.85" y2="16.91"/>
	<line fill="none" stroke="#000000" stroke-width="2" stroke-miterlimit="10" x1="1005.66" y1="173.58" x2="1060.52" y2="173.58"/>
	<line fill="none" stroke="#000000" stroke-width="2" stroke-miterlimit="10" x1="995.49" y1="154.33" x2="1079.6" y2="154.33"/>
	<line fill="none" stroke="#000000" stroke-width="2" stroke-miterlimit="10" x1="991.26" y1="134.56" x2="1074.79" y2="134.56"/>
	<line fill="none" stroke="#000000" stroke-width="2" stroke-miterlimit="10" x1="986.92" y1="114.92" x2="1055.34" y2="114.86"/>
	<line fill="none" stroke="#000000" stroke-width="2" stroke-miterlimit="10" x1="1017.85" y1="200.3" x2="1056.6" y2="218.95"/>
	<line fill="none" stroke="#000000" stroke-width="2" stroke-miterlimit="10" x1="1017.85" y1="178.81" x2="1100.23" y2="218.95"/>
	<line fill="none" stroke="#000000" stroke-width="2" stroke-miterlimit="10" x1="1080.13" y1="209.16" x2="1114" y2="174.58"/>
	<line fill="none" stroke="#000000" stroke-width="2" stroke-miterlimit="10" x1="1061.78" y1="200.21" x2="1100.55" y2="160.63"/>
	<line fill="none" stroke="#000000" stroke-width="2" stroke-miterlimit="10" x1="1043.59" y1="190.8" x2="1086.76" y2="146.72"/>
	<line fill="none" stroke="#000000" stroke-width="2" stroke-miterlimit="10" x1="1125.46" y1="218.95" x2="1141.43" y2="202.64"/>
	<line fill="none" stroke="#000000" stroke-width="2" stroke-miterlimit="10" x1="1098.6" y1="218.16" x2="1127.59" y2="188.56"/>
	<line fill="none" stroke="#000000" stroke-width="2" stroke-miterlimit="10" x1="1035.98" y1="95.24" x2="1158.1" y2="218.95"/>
	<line fill="none" stroke="#000000" stroke-width="2" stroke-miterlimit="10" x1="1063.37" y1="95.24" x2="1185.5" y2="218.95"/>
	<line fill="none" stroke="#000000" stroke-width="2" stroke-miterlimit="10" x1="1927.85" y1="127.81" x2="2037.63" y2="180.68"/>
	<line fill="none" stroke="#000000" stroke-width="2" stroke-miterlimit="10" x1="1920.17" y1="145.75" x2="2037.63" y2="202.32"/>
	<line fill="none" stroke="#000000" stroke-width="2" stroke-miterlimit="10" x1="1978.96" y1="0.93" x2="2016.52" y2="170.93"/>
	<line fill="none" stroke="#000000" stroke-width="2" stroke-miterlimit="10" x1="2001.83" y1="104.44" x2="2037.63" y2="75.87"/>
	<line fill="none" stroke="#000000" stroke-width="2" stroke-miterlimit="10" x1="1997.16" y1="83.3" x2="2037.63" y2="51.04"/>
	<line fill="none" stroke="#000000" stroke-width="2" stroke-miterlimit="10" x1="1992.48" y1="62.14" x2="2037.63" y2="25.96"/>
	<line fill="none" stroke="#000000" stroke-width="2" stroke-miterlimit="10" x1="1987.72" y1="40.57" x2="2037.18" y2="0.93"/>
	<line fill="none" stroke="#000000" stroke-width="2" stroke-miterlimit="10" x1="1982.9" y1="18.75" x2="2005.13" y2="0.93"/>
	<line fill="none" stroke="#000000" stroke-width="2" stroke-miterlimit="10" x1="2013.35" y1="95.24" x2="2037.63" y2="95.24"/>
	<line fill="none" stroke="#000000" stroke-width="2" stroke-miterlimit="10" x1="2022.89" y1="173.58" x2="2037.63" y2="173.58"/>
	<line fill="none" stroke="#000000" stroke-width="2" stroke-miterlimit="10" x1="2012.72" y1="154.33" x2="2037.63" y2="154.33"/>
	<line fill="none" stroke="#000000" stroke-width="2" stroke-miterlimit="10" x1="2008.48" y1="134.56" x2="2037.63" y2="134.56"/>
	<line fill="none" stroke="#000000" stroke-width="2" stroke-miterlimit="10" x1="2004.14" y1="114.92" x2="2037.63" y2="114.92"/>
	<line fill="none" stroke="#000000" stroke-width="2" stroke-miterlimit="10" x1="1091.12" y1="95.24" x2="1213.25" y2="218.95"/>
	<line fill="none" stroke="#000000" stroke-width="2" stroke-miterlimit="10" x1="1118.46" y1="95.24" x2="1160.98" y2="138.31"/>
	<line fill="none" stroke="#000000" stroke-width="2" stroke-miterlimit="10" x1="1145.63" y1="95.24" x2="1162.11" y2="111.93"/>
	<line fill="none" stroke="#000000" stroke-width="2" stroke-miterlimit="10" x1="1097.07" y1="0.93" x2="1165.1" y2="67.43"/>
	<line fill="none" stroke="#000000" stroke-width="2" stroke-miterlimit="10" x1="1124.78" y1="0.93" x2="1165.69" y2="40.92"/>
	<line fill="none" stroke="#000000" stroke-width="2" stroke-miterlimit="10" x1="1151.7" y1="0.93" x2="1239.06" y2="85.93"/>
	<line fill="none" stroke="#000000" stroke-width="2" stroke-miterlimit="10" x1="1179.64" y1="0.93" x2="1252.67" y2="72.32"/>
	<line fill="none" stroke="#000000" stroke-width="2" stroke-miterlimit="10" x1="1207.95" y1="0.93" x2="1266.67" y2="58.33"/>
	<line fill="none" stroke="#000000" stroke-width="2" stroke-miterlimit="10" x1="1235.75" y1="0.93" x2="1281.37" y2="45.53"/>
	<line fill="none" stroke="#000000" stroke-width="2" stroke-miterlimit="10" x1="1263.9" y1="0.93" x2="1295.8" y2="32.12"/>
	<line fill="none" stroke="#000000" stroke-width="2" stroke-miterlimit="10" x1="1291.02" y1="0.93" x2="1309.4" y2="18.89"/>
	<line fill="none" stroke="#000000" stroke-width="2" stroke-miterlimit="10" x1="1166.98" y1="16.91" x2="1160.39" y2="165.41"/>
	<line fill="none" stroke="#000000" stroke-width="2" stroke-miterlimit="10" x1="1185.42" y1="33.74" x2="1178.83" y2="184.09"/>
	<line fill="none" stroke="#000000" stroke-width="2" stroke-miterlimit="10" x1="1204.39" y1="52.2" x2="1197.8" y2="203.91"/>
	<line fill="none" stroke="#000000" stroke-width="2" stroke-miterlimit="10" x1="1200.93" y1="131.77" x2="1310.18" y2="218.95"/>
	<line fill="none" stroke="#000000" stroke-width="2" stroke-miterlimit="10" x1="1201.96" y1="108.11" x2="1342.02" y2="218.95"/>
	<line fill="none" stroke="#000000" stroke-width="2" stroke-miterlimit="10" x1="1203.01" y1="83.94" x2="1374.52" y2="218.95"/>
	<line fill="none" stroke="#000000" stroke-width="2" stroke-miterlimit="10" x1="1199.12" y1="173.42" x2="1233.25" y2="157.56"/>
	<line fill="none" stroke="#000000" stroke-width="2" stroke-miterlimit="10" x1="1200.08" y1="151.44" x2="1216.15" y2="143.86"/>
	<line fill="none" stroke="#000000" stroke-width="2" stroke-miterlimit="10" x1="1198.18" y1="195.25" x2="1250.06" y2="170.97"/>
	<line fill="none" stroke="#000000" stroke-width="2" stroke-miterlimit="10" x1="1267.33" y1="184.75" x2="1207.17" y2="212.79"/>
	<line fill="none" stroke="#000000" stroke-width="2" stroke-miterlimit="10" x1="1284.22" y1="198.23" x2="1240.85" y2="218.95"/>
	<line fill="none" stroke="#000000" stroke-width="2" stroke-miterlimit="10" x1="1288.02" y1="218.95" x2="1301.53" y2="212.04"/>
	<line fill="none" stroke="#000000" stroke-width="2" stroke-miterlimit="10" x1="1223.05" y1="70.36" x2="1222.27" y2="99.1"/>
	
		<line fill="none" stroke="#000000" stroke-width="1.7898" stroke-miterlimit="10" x1="1392.35" y1="75.99" x2="1392.35" y2="218.95"/>
	
		<line fill="none" stroke="#000000" stroke-width="1.7898" stroke-miterlimit="10" x1="1372.85" y1="95.24" x2="1372.85" y2="218.95"/>
	
		<line fill="none" stroke="#000000" stroke-width="1.7898" stroke-miterlimit="10" x1="1353.35" y1="111.93" x2="1353.35" y2="202.29"/>
	
		<line fill="none" stroke="#000000" stroke-width="1.7898" stroke-miterlimit="10" x1="1333.85" y1="130.43" x2="1333.85" y2="186.94"/>
	
		<line fill="none" stroke="#000000" stroke-width="1.7898" stroke-miterlimit="10" x1="1314.35" y1="148.68" x2="1314.35" y2="171.59"/>
	<line fill="none" stroke="#000000" stroke-width="2.116" stroke-miterlimit="10" x1="1472.7" y1="0.93" x2="1300.52" y2="160.7"/>
	
		<line fill="none" stroke="#000000" stroke-width="2.116" stroke-miterlimit="10" x1="1444.03" y1="0.93" x2="1285.01" y2="148.49"/>
	<line fill="none" stroke="#000000" stroke-width="2.116" stroke-miterlimit="10" x1="1415.36" y1="0.93" x2="1269.5" y2="136.28"/>
	<line fill="none" stroke="#000000" stroke-width="2.116" stroke-miterlimit="10" x1="1386.59" y1="1.04" x2="1254" y2="124.07"/>
	
		<line fill="none" stroke="#000000" stroke-width="2.116" stroke-miterlimit="10" x1="1357.92" y1="1.04" x2="1238.48" y2="111.86"/>
	<line fill="none" stroke="#000000" stroke-width="2.116" stroke-miterlimit="10" x1="1329.25" y1="1.04" x2="1223.05" y2="99.72"/>
	<line fill="none" stroke="#000000" stroke-width="2" stroke-miterlimit="10" x1="1515.16" y1="203.1" x2="1392.35" y2="203.1"/>
	<line fill="none" stroke="#000000" stroke-width="2" stroke-miterlimit="10" x1="1498.07" y1="183.6" x2="1392.35" y2="183.6"/>
	<line fill="none" stroke="#000000" stroke-width="2" stroke-miterlimit="10" x1="1480.98" y1="164.1" x2="1392.35" y2="164.1"/>
	<line fill="none" stroke="#000000" stroke-width="2" stroke-miterlimit="10" x1="1463.88" y1="144.6" x2="1392.35" y2="144.6"/>
	<line fill="none" stroke="#000000" stroke-width="2" stroke-miterlimit="10" x1="1446.79" y1="125.1" x2="1392.35" y2="125.1"/>
	<line fill="none" stroke="#000000" stroke-width="2" stroke-miterlimit="10" x1="1429.7" y1="105.6" x2="1392.35" y2="105.6"/>
	<line fill="none" stroke="#000000" stroke-width="2" stroke-miterlimit="10" x1="1412.61" y1="86.1" x2="1392.35" y2="86.1"/>
	<line fill="none" stroke="#000000" stroke-width="2" stroke-miterlimit="10" x1="1428.13" y1="44.64" x2="1580.92" y2="218.95"/>
	<line fill="none" stroke="#000000" stroke-width="2" stroke-miterlimit="10" x1="1413.46" y1="57.5" x2="1554.99" y2="218.95"/>
	<line fill="none" stroke="#000000" stroke-width="2" stroke-miterlimit="10" x1="1398.8" y1="70.35" x2="1529.05" y2="218.95"/>
	<line fill="none" stroke="#000000" stroke-width="2" stroke-miterlimit="10" x1="1545" y1="1.04" x2="1520.52" y2="149.66"/>
	<line fill="none" stroke="#000000" stroke-width="2" stroke-miterlimit="10" x1="1525.26" y1="0.93" x2="1503.83" y2="131"/>
	<line fill="none" stroke="#000000" stroke-width="2" stroke-miterlimit="10" x1="1505.48" y1="1.04" x2="1487.19" y2="112.02"/>
	<line fill="none" stroke="#000000" stroke-width="2" stroke-miterlimit="10" x1="1485.73" y1="0.93" x2="1470.56" y2="93.05"/>
	<line fill="none" stroke="#000000" stroke-width="2" stroke-miterlimit="10" x1="1464.75" y1="8.3" x2="1454.16" y2="73.71"/>
	<line fill="none" stroke="#000000" stroke-width="2" stroke-miterlimit="10" x1="1441.42" y1="29.95" x2="1437.28" y2="55.09"/>
	<line fill="none" stroke="#000000" stroke-width="2" stroke-miterlimit="10" x1="1727.62" y1="0.93" x2="1533" y2="76.21"/>
	<line fill="none" stroke="#000000" stroke-width="2" stroke-miterlimit="10" x1="1673.31" y1="1.04" x2="1536.27" y2="54.04"/>
	<line fill="none" stroke="#000000" stroke-width="2" stroke-miterlimit="10" x1="1619.25" y1="1.04" x2="1539.95" y2="31.71"/>
	<line fill="none" stroke="#000000" stroke-width="2" stroke-miterlimit="10" x1="1565.2" y1="1.04" x2="1543.63" y2="9.38"/>
	<line fill="none" stroke="#000000" stroke-width="2" stroke-miterlimit="10" x1="1522.01" y1="151.44" x2="1662.91" y2="196.4"/>
	<line fill="none" stroke="#000000" stroke-width="2" stroke-miterlimit="10" x1="1546.55" y1="179.75" x2="1669.41" y2="218.95"/>
	<line fill="none" stroke="#000000" stroke-width="2" stroke-miterlimit="10" x1="1571.46" y1="208.16" x2="1605.27" y2="218.95"/>
	<line fill="none" stroke="#000000" stroke-width="2" stroke-miterlimit="10" x1="1575.35" y1="59.77" x2="1678.51" y2="219.03"/>
	<line fill="none" stroke="#000000" stroke-width="2" stroke-miterlimit="10" x1="1556.87" y1="66.98" x2="1634.85" y2="187.45"/>
	<line fill="none" stroke="#000000" stroke-width="2" stroke-miterlimit="10" x1="1538.1" y1="73.71" x2="1605.27" y2="178.01"/>
	<line fill="none" stroke="#000000" stroke-width="2" stroke-miterlimit="10" x1="1529.31" y1="96.3" x2="1576.24" y2="168.75"/>
	<line fill="none" stroke="#000000" stroke-width="2" stroke-miterlimit="10" x1="1524.6" y1="124.89" x2="1546.95" y2="159.4"/>
	<line fill="none" stroke="#000000" stroke-width="2" stroke-miterlimit="10" x1="1679.18" y1="19.68" x2="1646.01" y2="168.87"/>
	<line fill="none" stroke="#000000" stroke-width="2" stroke-miterlimit="10" x1="1657.33" y1="28.12" x2="1631.14" y2="145.91"/>
	<line fill="none" stroke="#000000" stroke-width="2" stroke-miterlimit="10" x1="1635.48" y1="36.58" x2="1616.27" y2="122.95"/>
	<line fill="none" stroke="#000000" stroke-width="2" stroke-miterlimit="10" x1="1613.62" y1="45.03" x2="1601.4" y2="99.99"/>
	<line fill="none" stroke="#000000" stroke-width="2" stroke-miterlimit="10" x1="1591.76" y1="53.48" x2="1586.53" y2="77.03"/>
	<line fill="none" stroke="#000000" stroke-width="2" stroke-miterlimit="10" x1="1669.65" y1="62.65" x2="1771.37" y2="218.95"/>
	<line fill="none" stroke="#000000" stroke-width="2" stroke-miterlimit="10" x1="1663.71" y1="89.27" x2="1748.1" y2="218.95"/>
	<line fill="none" stroke="#000000" stroke-width="2" stroke-miterlimit="10" x1="1657.79" y1="115.92" x2="1724.84" y2="218.95"/>
	<line fill="none" stroke="#000000" stroke-width="2" stroke-miterlimit="10" x1="1651.86" y1="142.56" x2="1701.57" y2="218.95"/>
	<line fill="none" stroke="#000000" stroke-width="2" stroke-miterlimit="10" x1="1835.95" y1="116.6" x2="1835.53" y2="142.41"/>
	<line fill="none" stroke="#000000" stroke-width="2" stroke-miterlimit="10" x1="1816.69" y1="102.27" x2="1815.75" y2="159.21"/>
	<line fill="none" stroke="#000000" stroke-width="2" stroke-miterlimit="10" x1="1797.42" y1="88.1" x2="1796.08" y2="175.92"/>
	<line fill="none" stroke="#000000" stroke-width="2" stroke-miterlimit="10" x1="1778.16" y1="73.71" x2="1776.19" y2="192.83"/>
	<line fill="none" stroke="#000000" stroke-width="2" stroke-miterlimit="10" x1="1758.68" y1="72.23" x2="1756.63" y2="196.29"/>
	<line fill="none" stroke="#000000" stroke-width="2" stroke-miterlimit="10" x1="1738.96" y1="85.1" x2="1737.61" y2="167.07"/>
	<line fill="none" stroke="#000000" stroke-width="2" stroke-miterlimit="10" x1="1719.25" y1="97.98" x2="1718.59" y2="137.84"/>
	<line fill="none" stroke="#000000" stroke-width="2" stroke-miterlimit="10" x1="1837.81" y1="20.55" x2="1854.98" y2="33.09"/>
	<line fill="none" stroke="#000000" stroke-width="2" stroke-miterlimit="10" x1="1820.35" y1="31.95" x2="1860.09" y2="60.96"/>
	<line fill="none" stroke="#000000" stroke-width="2" stroke-miterlimit="10" x1="1802.89" y1="43.35" x2="1865.8" y2="89.27"/>
	<line fill="none" stroke="#000000" stroke-width="2" stroke-miterlimit="10" x1="1785.43" y1="54.75" x2="1871.34" y2="117.45"/>
	<line fill="none" stroke="#000000" stroke-width="2" stroke-miterlimit="10" x1="1767.91" y1="66.11" x2="1876.06" y2="145.04"/>
	<line fill="none" stroke="#000000" stroke-width="2" stroke-miterlimit="10" x1="1850.72" y1="12.12" x2="1890.96" y2="219.03"/>
	<line fill="none" stroke="#000000" stroke-width="2" stroke-miterlimit="10" x1="1867.85" y1="0.93" x2="1912.12" y2="218.95"/>
	<line fill="none" stroke="#000000" stroke-width="2" stroke-miterlimit="10" x1="1980.53" y1="0.93" x2="1904.73" y2="182.8"/>
	<line fill="none" stroke="#000000" stroke-width="2" stroke-miterlimit="10" x1="1959.41" y1="0.93" x2="1897.84" y2="148.64"/>
	<line fill="none" stroke="#000000" stroke-width="2" stroke-miterlimit="10" x1="1938.28" y1="0.93" x2="1890.96" y2="114.47"/>
	<line fill="none" stroke="#000000" stroke-width="2" stroke-miterlimit="10" x1="1917.16" y1="0.93" x2="1884" y2="80.47"/>
	<line fill="none" stroke="#000000" stroke-width="2" stroke-miterlimit="10" x1="1896.03" y1="0.93" x2="1877.37" y2="45.7"/>
	<line fill="none" stroke="#000000" stroke-width="2" stroke-miterlimit="10" x1="1874.9" y1="0.93" x2="1870.12" y2="12.12"/>
	<line fill="none" stroke="#000000" stroke-width="2" stroke-miterlimit="10" x1="1912.66" y1="163.78" x2="2027.21" y2="218.95"/>
	<line fill="none" stroke="#000000" stroke-width="2" stroke-miterlimit="10" x1="1905.15" y1="181.8" x2="1982.27" y2="218.95"/>
	<line fill="none" stroke="#000000" stroke-width="2" stroke-miterlimit="10" x1="1909.39" y1="205.49" x2="1937.33" y2="218.95"/>
	<line fill="none" stroke="#000000" stroke-width="2" stroke-miterlimit="10" x1="1978.96" y1="0.93" x2="2016.52" y2="170.93"/>
	<line fill="none" stroke="#000000" stroke-width="2" stroke-miterlimit="10" x1="1966.67" y1="34.2" x2="1994.07" y2="159.7"/>
	<line fill="none" stroke="#000000" stroke-width="2" stroke-miterlimit="10" x1="1953.42" y1="66.11" x2="1971.72" y2="148.93"/>
	<line fill="none" stroke="#000000" stroke-width="2" stroke-miterlimit="10" x1="1940.35" y1="97.34" x2="1949.37" y2="138.17"/>
</g>
</svg>
