<?xml version="1.0" encoding="UTF-8"?>
<svg version="1.1" id="Ebene_1" xmlns="http://www.w3.org/2000/svg" xmlns:xlink="http://www.w3.org/1999/xlink" x="0px" y="0px" viewBox="0 0 476.4 289.5" style="enable-background:new 0 0 476.4 289.5;" xml:space="preserve">
<style type="text/css">
	.st0{fill:#fff;}
</style>
<path class="st0" d="M136.6,0h35.2c0,0,0.1,117.9,0.1,135c0,17.1,0.9,36.2,1.9,42.2h-37.2c0,0,2-9.6,2-42.7c0-33.1,0.1-59,0.1-82.9  C138.7,27.9,137.6,7.6,136.6,0"/>
<path class="st0" d="M417.8,112.6v37.8c0,0-5.2,6-15,6c-6.9,0-14.7-5.5-14.7-17.2C388,130.5,394.6,115.9,417.8,112.6 M357.4,160.6  c39.7,0.4,67.8,6.5,86.7,12.2c4.9,1.5,9,2.9,12.7,4.3c-3-8.4-5.8-27-5.8-36.6c0-9.5-0.1-34.9-0.1-44.4c0-10.4-3.4-28.4-21.5-39.2  c-15.6-9.2-39.6-9.2-48.4-8.6c-6.7,0.5-15.7,1.9-15.7,1.9l0.1,31.1c0,0,16.5-10.9,30.2-10.9c17.5,0,20.4,19.1,20.4,19.1  c-13.6,3.5-31.5,7.7-47.5,21.1C354.6,122.6,349.3,143.5,357.4,160.6"/>
<path class="st0" d="M250.5,169.2l16.6-58.3l15.3,54c10.3-1.2,21.1-2.4,33.8-3.2c24.9-73.4,28.9-109.8,28.9-109.8h-29.3  c-2,31.2-14,76.7-14,76.7c-5.2-15-17.4-76.7-17.4-76.7h-27.7c0,12.1-17.3,76.8-17.3,76.8c-7.9-30-14.9-76.8-14.9-76.8h-35.6  c11.6,61.5,29.1,109.9,33.7,122.2C233.2,172.3,242.3,170.6,250.5,169.2"/>
<path class="st0" d="M77,112.6v37.8c0,0-5.2,6-15,6c-6.9,0-14.7-5.5-14.7-17.2C47.3,130.5,53.9,115.9,77,112.6 M20.3,166.9  c0.3,0.4,0.6,0.7,0.9,1c10.7,3,25.4,6.3,44.3,8.9c8.6-3.5,13.7-8.3,13.7-8.3c2.1,4.7,4.4,8.7,4.4,8.7h32.6c-3-8.4-5.8-27-5.8-36.6  c0-9.5-0.1-34.9-0.1-44.4c0-10.4-3.4-28.4-21.5-39.2c-15.6-9.2-39.6-9.2-48.4-8.6c-6.7,0.5-15.7,1.9-15.7,1.9l0.1,31.1  c0,0,16.5-10.9,30.2-10.9c17.5,0,20.4,19.1,20.4,19.1c-13.6,3.5-31.5,7.7-47.5,21.1C12.1,124.1,7.3,148.9,20.3,166.9"/>
<path class="st0" d="M362,190.9c33.1,0,64,2.8,81.3,5.5c26.9,4.1,33.1,5,33.1,5s-9.7-6.6-32.3-13.4c-19.6-5.9-48.8-12.3-90.6-12.3  c-42.5,0-66.2,3.8-92.2,7c-26,3.2-61.4,13.7-127.1,13.7C44.3,196.4,0,175.9,0,175.9s44.6,36.2,134.6,36.2c66,0,95.6-8.2,127.3-12.4  C300.3,194.5,319.9,190.9,362,190.9"/>
</svg>