<?xml version="1.0" encoding="utf-8"?>
<!-- Generator: Adobe Illustrator 16.0.0, SVG Export Plug-In . SVG Version: 6.00 Build 0)  -->
<!DOCTYPE svg PUBLIC "-//W3C//DTD SVG 1.1//EN" "http://www.w3.org/Graphics/SVG/1.1/DTD/svg11.dtd">
<svg version="1.1" id="Layer_1" xmlns="http://www.w3.org/2000/svg" xmlns:xlink="http://www.w3.org/1999/xlink" x="0px" y="0px"
	 width="595.281px" height="265.027px" viewBox="0 240.074 595.281 265.027" enable-background="new 0 240.074 595.281 265.027"
	 xml:space="preserve">
<g>
	<path fill="#1d327b" d="M170.687,240.074h43.984c0,0,0.125,147.321,0.125,168.688c0,21.367,1.125,45.233,2.374,52.73h-46.483
		c0,0,2.499-11.995,2.499-53.355s0.125-73.723,0.125-103.586C173.311,274.937,171.937,249.571,170.687,240.074"/>
	<path fill="#1d327b" d="M522.058,380.772v47.232c0,0-6.498,7.497-18.744,7.497c-8.621,0-18.367-6.872-18.367-21.492
		C484.822,403.139,493.068,384.896,522.058,380.772 M446.585,440.75c49.605,0.5,84.719,8.122,108.334,15.244
		c6.123,1.875,11.246,3.624,15.869,5.373c-3.748-10.496-7.246-33.737-7.246-45.732c0-11.871-0.125-43.609-0.125-55.479
		c0-12.996-4.248-35.487-26.865-48.982c-19.492-11.496-49.482-11.496-60.479-10.746c-8.371,0.625-19.617,2.374-19.617,2.374
		l0.125,38.86c0,0,20.617-13.62,37.736-13.62c21.867,0,25.49,23.866,25.49,23.866c-16.994,4.373-39.361,9.621-59.354,26.365
		C443.087,393.268,436.464,419.383,446.585,440.75"/>
	<path fill="#1d327b" d="M313.009,451.496l20.742-72.848l19.119,67.475c12.869-1.499,26.365-2.999,42.234-3.998
		c31.113-91.716,36.111-137.2,36.111-137.2h-36.611c-2.5,38.986-17.494,95.84-17.494,95.84c-6.498-18.743-21.742-95.84-21.742-95.84
		h-34.611c0,15.12-21.617,95.965-21.617,95.965c-9.872-37.486-18.619-95.965-18.619-95.965h-44.483
		c14.495,76.847,36.361,137.325,42.109,152.694C291.393,455.37,302.763,453.246,313.009,451.496"/>
	<path fill="#1d327b" d="M96.214,380.772v47.232c0,0-6.498,7.497-18.743,7.497c-8.622,0-18.368-6.872-18.368-21.492
		C59.103,403.139,67.35,384.896,96.214,380.772 M25.366,448.622c0.375,0.5,0.75,0.875,1.125,1.25
		c13.37,3.748,31.738,7.872,55.354,11.121c10.746-4.374,17.119-10.371,17.119-10.371c2.624,5.872,5.498,10.87,5.498,10.87h40.735
		c-3.749-10.496-7.247-33.737-7.247-45.733c0-11.871-0.125-43.609-0.125-55.479c0-12.995-4.249-35.487-26.865-48.982
		c-19.493-11.496-49.481-11.496-60.478-10.746c-8.372,0.625-19.618,2.375-19.618,2.375l0.125,38.86c0,0,20.617-13.62,37.736-13.62
		c21.867,0,25.491,23.866,25.491,23.866c-16.994,4.373-39.36,9.621-59.353,26.365C15.12,395.142,9.122,426.131,25.366,448.622"/>
	<path fill="#1d327b" d="M452.333,478.611c41.359,0,79.971,3.499,101.588,6.872c33.611,5.123,41.359,6.248,41.359,6.248
		s-12.121-8.247-40.361-16.744c-24.49-7.372-60.977-15.369-113.207-15.369c-53.105,0-82.721,4.748-115.207,8.747
		c-32.489,3.998-76.723,17.118-158.817,17.118C55.354,485.483,0,459.868,0,459.868s55.729,45.233,168.188,45.233
		c82.47,0,119.456-10.246,159.065-15.494C375.236,483.109,399.728,478.611,452.333,478.611"/>
</g>
</svg>
