<svg width="1300" height="340" version="1.1" xmlns="http://www.w3.org/2000/svg"
	xmlns:xlink="http://www.w3.org/1999/xlink" x="0px" y="0px" viewBox="0 0 709.4 185.5">
	<polygon fill="#FFFFFF"
		points="136.2,81.1 171.4,81.1 175.3,137.5 207.1,81.1 223.9,81.1 255.7,137.5 259.6,81.1 294.8,81.1 287,184.3   243.4,184.3 215.5,134.1 187.6,184.3 144.1,184.3 " />
	<polygon fill="#EF7D00" points="147.4,0 0,44.2 0,73.7 147.4,29.5 294.8,73.7 294.8,44.2 " />
	<path fill="#FFFFFF"
		d="M42.8,161.4v-18.7h22.6c16.1,0,22.8,2.8,22.8,9.1c0,6.2-8,9.6-22.8,9.6H42.8z M42.8,120.7v-16.1H60   c13.7,0,19.3,2.3,19.3,7.6c0,6-5.6,8.5-19.3,8.5H42.8z M0.2,184.6h56.6c33.3,0,46.4-0.7,59.2-7.8c10.7-5.6,15.9-14.7,15.9-23.4   c0-12.1-10.2-20.3-29.5-24c13.5-5.2,20.4-10.6,21-21.6c0.6-9.8-6.8-17.7-16.9-21.4c-9.7-3.9-22.1-5-51.4-5h-55V184.6z" />
	<path fill="#EF7D00"
		d="M571.9,139.1v30.4c0,5.8,0.9,8.7,3.5,11.5c2.7,2.8,7.3,4.5,12.1,4.5c4.3,0,8.7-1.4,11.5-3.8   c3-2.6,4.3-6,4.3-12.1v-30.4h-9.5v30.4c0,5.1-1.9,7.2-6.4,7.2c-4.1,0-6-2.2-6-7.2v-30.4H571.9z M551.8,167.8H543l4.5-18.2   L551.8,167.8z M529,184.4h9.9l2.8-8.7h11.7l2.8,8.7h9.9l-14-45.2H543L529,184.4z M505.2,175.6v-10.5h4.1c3.3,0,5.3,2,5.3,5.2   c0,3.3-2,5.3-5.3,5.3H505.2z M505.2,156.4v-8.5h2.9c2.9,0,4.6,1.6,4.6,4.2c0,2.7-1.6,4.3-4.6,4.3H505.2z M495.8,184.4h14.4   c4.4,0,6.6-0.5,8.9-2.3c3.4-2.5,5.6-6.8,5.6-11c0-6.2-3.4-10.2-9.1-11c4.9-0.6,7.3-3.6,7.3-9.1c0-3.2-1.3-6.4-3.4-8.5   c-2.5-2.5-5.3-3.3-10.8-3.3h-12.7V184.4z M453.8,184.4h9.5v-16.7c0-7-0.1-10.1-0.6-14.9c0.9,4,2.1,7.4,4,11.6l8.7,20h8.9v-45.2   h-9.5v15.3c0,5.8,0.1,7.1,0.5,12.6c-0.5-1.6-0.5-1.4-1.4-3.8c-2-5.3-1.9-5.1-3.9-9.2l-7-14.8h-9.1V184.4z M412,184.4h9.5v-19.3   h11.3v19.3h9.5v-45.2h-9.5v17.2h-11.3v-17.2H412V184.4z M385,146.7c4.4,0,7,5.5,7,14.8c0,9.7-2.6,15.2-7,15.2c-4.5,0-7-5.5-7-15.2   C377.9,152.2,380.6,146.7,385,146.7 M385,138c-10.6,0-17,8.9-17,23.5c0,15.1,6.3,24,17,24c10.6,0,17-9,17-24.1   C402,147,395.5,138,385,138 M320.9,139.1h-9.8l11.3,45.2h8.2l4.7-22.4c1.1-5.1,1.2-5.4,1.5-10.6c0.3,4.3,0.7,7.1,1.4,10.6l4.8,22.5   h8.1l11.3-45.2h-9.7l-4.1,20.5c-0.9,4.6-1.1,5.4-1.5,11.4c-0.5-6.2-0.5-6.8-1.7-11.4l-4.5-20.5h-8.1l-4.9,21.1   c-1.1,4.5-1.2,5.2-1.4,10.7c-0.4-4.9-0.8-7.7-1.4-10.7L320.9,139.1z" />
	<path fill="#EF7D00"
		d="M687.9,101.4V89.8h3.7c3.4,0,5.7,2.3,5.7,5.8c0,3.5-2.3,5.8-5.7,5.8H687.9z M678.4,81v45.2h9.5v-19l10.2,19  h11.2l-11.2-18c6-1.3,9.1-5.7,9.1-12.9c0-4.7-1.7-8.5-5-11.2c-2.8-2.3-5.4-3.1-10.6-3.1H678.4z M645.4,126.3h22.7v-8.7h-13.2V107  h13.2v-8.7h-13.2v-8.5h13.2V81h-22.7V126.3z M593.4,126.3h9.5v-16.1v-1.8v-1.8l-0.1-1.8c0-3.3,0-5.6-0.1-6.3  c-0.1-2.6-0.2-4.3-0.5-7.4c0.3,1.3,0.5,2.3,0.5,2.7c0.7,4.1,0.8,4.4,1,5.4l6.6,27.2h6.5l6.4-27c0.2-0.8,0.3-1.6,0.5-2.4  c0.9-4.6,0.7-3.8,1.2-5.8c-0.5,4.4-0.7,7.5-0.7,13.8v6.3v15.2h9.5V81h-13.6l-4.5,18c-0.9,3.7-1.4,6.3-2.1,12.1  c-0.9-6.2-1.4-9-2.2-12.1L607,81h-13.6V126.3z M572.4,126.3h9.5V81h-9.5V126.3z M539.3,126.3H562v-8.7h-13.2V107H562v-8.7h-13.2  v-8.5H562V81h-22.7V126.3z M497.5,126.3h9.5V107h11.3v19.3h9.5V81h-9.5v17.2H507V81h-9.5V126.3z M469.6,101.3v8.7h8.1  c0.1,0.4,0.1,0.7,0.1,0.9c0,4.5-2.6,7.8-6.2,7.8c-2.8,0-5.4-1.8-6.4-4.7c-0.9-2.5-1.5-6.5-1.5-10c0-9.9,2.8-15.4,7.8-15.4  c3.5,0,5.6,2.7,6,8.1h10c-0.5-10.4-6.6-16.8-16.1-16.8c-11,0-17.6,9.1-17.6,24.2c0,14.3,6.8,23.3,17.5,23.3  c10.8,0,16.3-7.1,16.3-20.8v-5.3H469.6z M434.1,126.3h9.5V81h-9.5V126.3z M408.9,126.3h9.5V89.8h7.6V81h-24.7v8.7h7.7V126.3z   M371.6,126.3h22.7v-8.7h-13.2V107h13.2v-8.7h-13.2v-8.5h13.2V81h-22.7V126.3z M350.6,126.3h9.5V81h-9.5V126.3z M321.5,117.5V107  h4.1c3.3,0,5.3,2,5.3,5.2c0,3.3-2,5.3-5.3,5.3H321.5z M321.5,98.3v-8.5h2.9c2.9,0,4.6,1.6,4.6,4.2c0,2.7-1.6,4.3-4.6,4.3H321.5z   M312,126.3h14.4c4.4,0,6.6-0.5,8.9-2.3c3.4-2.5,5.6-6.8,5.6-11c0-6.2-3.4-10.2-9.1-11c4.9-0.6,7.3-3.6,7.3-9.1  c0-3.2-1.3-6.4-3.4-8.5c-2.5-2.5-5.3-3.3-10.8-3.3H312V126.3z" />
</svg>
